<svg width="120" height="120" viewBox="0 0 120 120" fill="none" xmlns="http://www.w3.org/2000/svg">
<rect width="120" height="120" rx="30" transform="matrix(-1 0 0 1 120 0)" fill="#0077FF"/>
<path d="M105 60C105 84.8528 84.8528 105 60 105C35.1472 105 15 84.8528 15 60C15 35.1472 35.1472 15 60 15C84.8528 15 105 35.1472 105 60Z" fill="#3048EA"/>
<path d="M60.4084 26.5C61.7889 26.5 63.1323 27.2087 64.1692 28.4141C65.2087 29.6226 65.8352 31.2175 65.8352 32.7412C65.8352 34.5037 65.0837 41.1102 63.8362 47.3252C63.2145 50.4222 62.4863 53.3332 61.6995 55.4434C61.3025 56.5079 60.9205 57.2837 60.5793 57.7666C60.5138 57.8594 60.4562 57.9307 60.4084 57.9863C60.3608 57.9308 60.3039 57.8591 60.2385 57.7666C59.8973 57.2837 59.5154 56.5079 59.1184 55.4434C58.3315 53.3332 57.6033 50.4222 56.9817 47.3252C55.7342 41.1102 54.9827 34.5037 54.9827 32.7412C54.9827 31.2175 55.6091 29.6226 56.6487 28.4141C57.6855 27.2089 59.0281 26.5001 60.4084 26.5Z" stroke="#D1E3FF" stroke-width="3"/>
<path d="M81.2741 34.4299C82.2968 35.3572 82.816 36.7845 82.7746 38.374C82.733 39.9675 82.1259 41.5699 81.1024 42.6987C79.9186 44.0044 74.9244 48.3941 69.8258 52.1605C67.285 54.0374 64.7903 55.7049 62.79 56.7397C61.7809 57.2617 60.9768 57.5799 60.3997 57.7085C60.2889 57.7332 60.1983 57.7473 60.1255 57.7565C60.1276 57.6833 60.1335 57.592 60.1472 57.4796C60.2188 56.8927 60.4569 56.0614 60.8779 55.0061C61.7122 52.9143 63.128 50.2686 64.7476 47.5566C67.9979 42.1143 71.8786 36.7151 73.0623 35.4094C74.0858 34.2805 75.6212 33.5197 77.203 33.3226C78.7807 33.1262 80.2514 33.5029 81.2741 34.4299Z" stroke="#D1E3FF" stroke-width="3"/>
<path d="M90.0546 49.5832C90.453 50.905 90.1622 52.3957 89.3073 53.7363C88.4502 55.0804 87.104 56.1405 85.645 56.5802C83.9575 57.0888 77.4152 58.2758 71.1046 58.8749C67.9599 59.1734 64.9627 59.3163 62.7152 59.1718C61.5814 59.0989 60.7284 58.9571 60.1676 58.7698C60.0599 58.7338 59.9749 58.6992 59.9079 58.6696C59.9473 58.6079 59.9995 58.5328 60.0692 58.4435C60.4331 57.9774 61.0657 57.3879 61.9704 56.7006C63.7637 55.3382 66.3407 53.801 69.1266 52.312C74.7172 49.324 80.8257 46.698 82.5132 46.1894C83.9721 45.7496 85.6799 45.8892 87.137 46.5358C88.5902 47.1807 89.6562 48.2617 90.0546 49.5832Z" stroke="#D1E3FF" stroke-width="3"/>
<path d="M40.5079 34.3882C41.54 33.4715 43.015 33.1092 44.5907 33.3218C46.1705 33.535 47.6981 34.3113 48.71 35.4506C49.8804 36.7683 53.7059 42.2067 56.9006 47.6817C58.4926 50.4101 59.8814 53.0701 60.6944 55.1702C61.1045 56.2298 61.3342 57.0635 61.3998 57.6511C61.4124 57.764 61.4167 57.8556 61.4179 57.9288C61.3454 57.9189 61.2553 57.9032 61.145 57.8774C60.5692 57.743 59.7684 57.4166 58.7647 56.8843C56.775 55.8293 54.2974 54.1365 51.7759 52.2338C46.7158 48.4156 41.7666 43.9754 40.5961 42.6577C39.5842 41.5185 38.9934 39.9101 38.9681 38.3161C38.9429 36.7265 39.476 35.305 40.5079 34.3882Z" stroke="#D1E3FF" stroke-width="3"/>
<path d="M30.674 48.7419C31.1236 47.4367 32.2312 46.3974 33.7085 45.8096C35.1897 45.2204 36.9017 45.1475 38.3424 45.6438C40.0087 46.2179 46.0102 49.0802 51.48 52.2839C54.2057 53.8804 56.7208 55.517 58.4596 56.9482C59.3368 57.6703 59.9459 58.2841 60.2913 58.7639C60.3577 58.8561 60.4063 58.9339 60.4434 58.9971C60.3753 59.024 60.2891 59.0545 60.1803 59.0862C59.6126 59.2515 58.7547 59.3599 57.6189 59.3885C55.3676 59.4452 52.3781 59.1856 49.2475 58.7646C42.965 57.9198 36.474 56.4786 34.8077 55.9046C33.367 55.4083 32.0631 54.2965 31.2591 52.92C30.4573 51.5472 30.2245 50.047 30.674 48.7419Z" stroke="#D1E3FF" stroke-width="3"/>
<path d="M60.4084 93.9154C61.7889 93.9154 63.1323 93.2067 64.1692 92.0014C65.2087 90.7929 65.8352 89.198 65.8352 87.6742C65.8352 85.9117 65.0837 79.3053 63.8362 73.0902C63.2145 69.9932 62.4863 67.0822 61.6995 64.9721C61.3025 63.9076 60.9205 63.1317 60.5793 62.6488C60.5138 62.5561 60.4562 62.4847 60.4084 62.4291C60.3608 62.4847 60.3039 62.5563 60.2385 62.6488C59.8973 63.1317 59.5154 63.9075 59.1184 64.9721C58.3315 67.0822 57.6033 69.9932 56.9817 73.0902C55.7342 79.3053 54.9827 85.9117 54.9827 87.6742C54.9827 89.198 55.6091 90.7929 56.6487 92.0014C57.6855 93.2066 59.0281 93.9153 60.4084 93.9154Z" stroke="#D1E3FF" stroke-width="3"/>
<path d="M81.2741 85.9855C82.2968 85.0583 82.816 83.6309 82.7746 82.0415C82.733 80.4479 82.1259 78.8456 81.1024 77.7167C79.9186 76.411 74.9244 72.0214 69.8258 68.2549C67.285 66.378 64.7903 64.7105 62.79 63.6757C61.7809 63.1537 60.9768 62.8355 60.3997 62.7069C60.2889 62.6822 60.1983 62.6681 60.1255 62.6589C60.1276 62.7321 60.1335 62.8234 60.1472 62.9359C60.2188 63.5228 60.4569 64.3541 60.8779 65.4094C61.7122 67.5012 63.128 70.1469 64.7476 72.8589C67.9979 78.3012 71.8786 83.7003 73.0623 85.0061C74.0858 86.1349 75.6212 86.8957 77.203 87.0928C78.7807 87.2893 80.2514 86.9125 81.2741 85.9855Z" stroke="#D1E3FF" stroke-width="3"/>
<path d="M90.0546 70.8322C90.453 69.5105 90.1622 68.0198 89.3073 66.6791C88.4502 65.335 87.104 64.275 85.645 63.8352C83.9575 63.3267 77.4152 62.1397 71.1046 61.5406C67.9599 61.242 64.9627 61.0992 62.7152 61.2436C61.5814 61.3165 60.7284 61.4583 60.1676 61.6457C60.0599 61.6816 59.9749 61.7162 59.9079 61.7459C59.9473 61.8075 59.9995 61.8827 60.0692 61.972C60.4331 62.438 61.0657 63.0276 61.9704 63.7149C63.7637 65.0772 66.3407 66.6145 69.1266 68.1034C74.7172 71.0914 80.8257 73.7174 82.5132 74.2261C83.9721 74.6658 85.6799 74.5262 87.137 73.8797C88.5902 73.2348 89.6562 72.1538 90.0546 70.8322Z" stroke="#D1E3FF" stroke-width="3"/>
<path d="M40.5079 86.0272C41.54 86.944 43.015 87.3062 44.5907 87.0937C46.1705 86.8805 47.6981 86.1041 48.71 84.9649C49.8804 83.6471 53.7059 78.2088 56.9006 72.7337C58.4926 70.0054 59.8814 67.3454 60.6944 65.2452C61.1045 64.1857 61.3342 63.352 61.3998 62.7644C61.4124 62.6515 61.4167 62.5599 61.4179 62.4866C61.3454 62.4965 61.2553 62.5123 61.145 62.538C60.5692 62.6725 59.7684 62.9989 58.7647 63.5311C56.775 64.5862 54.2974 66.279 51.7759 68.1816C46.7158 71.9998 41.7666 76.44 40.5961 77.7577C39.5842 78.897 38.9934 80.5054 38.9681 82.0993C38.9429 83.6889 39.476 85.1104 40.5079 86.0272Z" stroke="#D1E3FF" stroke-width="3"/>
<path d="M30.674 71.6736C31.1236 72.9788 32.2312 74.018 33.7085 74.6058C35.1897 75.1951 36.9017 75.2679 38.3424 74.7716C40.0087 74.1975 46.0102 71.3353 51.48 68.1315C54.2057 66.5351 56.7208 64.8985 58.4596 63.4672C59.3368 62.7452 59.9459 62.1313 60.2913 61.6515C60.3577 61.5593 60.4063 61.4816 60.4434 61.4183C60.3753 61.3914 60.2891 61.3609 60.1803 61.3293C59.6126 61.164 58.7547 61.0555 57.6189 61.0269C55.3676 60.9702 52.3781 61.2298 49.2475 61.6508C42.965 62.4956 36.474 63.9368 34.8077 64.5108C33.367 65.0071 32.0631 66.1189 31.2591 67.4954C30.4573 68.8682 30.2245 70.3685 30.674 71.6736Z" stroke="#D1E3FF" stroke-width="3"/>
<circle cx="60.4089" cy="60.8533" r="8.96333" fill="#D1E3FF"/>
</svg>
